<mxfile host="app.diagrams.net" modified="2024-05-13T02:47:09.003Z" agent="Mozilla/5.0 (Macintosh; Intel Mac OS X 10_15_7) AppleWebKit/537.36 (KHTML, like Gecko) Chrome/124.0.0.0 Safari/537.36" etag="GVg63rUijJp_gCN8lGgN" version="24.4.0" type="github">
  <diagram name="Page-1" id="e7e014a7-5840-1c2e-5031-d8a46d1fe8dd">
    <mxGraphModel dx="1408" dy="676" grid="1" gridSize="10" guides="1" tooltips="1" connect="1" arrows="1" fold="1" page="1" pageScale="1" pageWidth="1169" pageHeight="826" background="none" math="0" shadow="0">
      <root>
        <mxCell id="0" />
        <mxCell id="1" parent="0" />
        <mxCell id="2" value="待执行" style="swimlane;whiteSpace=wrap" parent="1" vertex="1">
          <mxGeometry y="128" width="360" height="632" as="geometry" />
        </mxCell>
        <mxCell id="10" value="Pending" style="" parent="2" vertex="1">
          <mxGeometry x="190" y="209" width="110" height="50" as="geometry" />
        </mxCell>
        <mxCell id="IsNljcrBX8zVi-yIAinM-92" value="Init" style="" vertex="1" parent="2">
          <mxGeometry x="10" y="209" width="110" height="50" as="geometry" />
        </mxCell>
        <mxCell id="3" value="执行态" style="swimlane;whiteSpace=wrap" parent="1" vertex="1">
          <mxGeometry x="360" y="128" width="180" height="632" as="geometry" />
        </mxCell>
        <mxCell id="14" value="" style="edgeStyle=elbowEdgeStyle;elbow=horizontal;verticalAlign=bottom;endArrow=open;endSize=8;strokeColor=#FF0000;endFill=1;rounded=0" parent="3" target="15" edge="1">
          <mxGeometry x="40" y="20" as="geometry">
            <mxPoint x="55" y="90" as="targetPoint" />
            <mxPoint x="75" y="70" as="sourcePoint" />
          </mxGeometry>
        </mxCell>
        <mxCell id="17" value="" style="endArrow=open;strokeColor=#FF0000;endFill=1;rounded=0" parent="3" target="16" edge="1">
          <mxGeometry relative="1" as="geometry">
            <mxPoint x="75" y="160" as="sourcePoint" />
          </mxGeometry>
        </mxCell>
        <mxCell id="24" value="" style="endArrow=open;strokeColor=#FF0000;endFill=1;rounded=0" parent="3" source="16" edge="1">
          <mxGeometry relative="1" as="geometry">
            <mxPoint x="150" y="245" as="targetPoint" />
          </mxGeometry>
        </mxCell>
        <mxCell id="IsNljcrBX8zVi-yIAinM-94" style="edgeStyle=orthogonalEdgeStyle;rounded=0;orthogonalLoop=1;jettySize=auto;html=1;fillColor=#f8cecc;strokeColor=#b85450;endArrow=open;endFill=0;startArrow=open;startFill=0;" edge="1" parent="3" source="18" target="IsNljcrBX8zVi-yIAinM-93">
          <mxGeometry relative="1" as="geometry" />
        </mxCell>
        <mxCell id="18" value="Running" style="" parent="3" vertex="1">
          <mxGeometry x="30" y="209" width="110" height="50" as="geometry" />
        </mxCell>
        <mxCell id="IsNljcrBX8zVi-yIAinM-93" value="Paused" style="fillColor=#f5f5f5;fontColor=#333333;strokeColor=#666666;" vertex="1" parent="3">
          <mxGeometry x="30" y="392" width="110" height="50" as="geometry" />
        </mxCell>
        <mxCell id="4" value="完成态" style="swimlane;whiteSpace=wrap" parent="1" vertex="1">
          <mxGeometry x="540" y="128" width="300" height="632" as="geometry" />
        </mxCell>
        <mxCell id="33" value="success" style="" parent="4" vertex="1">
          <mxGeometry x="95" y="52" width="110" height="50" as="geometry" />
        </mxCell>
        <mxCell id="IsNljcrBX8zVi-yIAinM-41" value="failure" style="" vertex="1" parent="4">
          <mxGeometry x="95" y="169" width="110" height="50" as="geometry" />
        </mxCell>
        <mxCell id="IsNljcrBX8zVi-yIAinM-42" value="aborted" style="" vertex="1" parent="4">
          <mxGeometry x="95" y="282" width="110" height="50" as="geometry" />
        </mxCell>
        <mxCell id="IsNljcrBX8zVi-yIAinM-46" value="canceled" style="" vertex="1" parent="4">
          <mxGeometry x="95" y="412" width="110" height="50" as="geometry" />
        </mxCell>
        <mxCell id="IsNljcrBX8zVi-yIAinM-98" value="skipped" style="" vertex="1" parent="4">
          <mxGeometry x="95" y="542" width="110" height="50" as="geometry" />
        </mxCell>
        <mxCell id="IsNljcrBX8zVi-yIAinM-63" value="终止态" style="swimlane;whiteSpace=wrap" vertex="1" parent="1">
          <mxGeometry x="840" y="128" width="320" height="632" as="geometry" />
        </mxCell>
        <mxCell id="IsNljcrBX8zVi-yIAinM-65" value="" style="endArrow=open;strokeColor=#FF0000;endFill=1;rounded=0" edge="1" parent="IsNljcrBX8zVi-yIAinM-63">
          <mxGeometry relative="1" as="geometry">
            <mxPoint x="75" y="160" as="sourcePoint" />
          </mxGeometry>
        </mxCell>
        <mxCell id="IsNljcrBX8zVi-yIAinM-66" value="" style="endArrow=open;strokeColor=#FF0000;endFill=1;rounded=0" edge="1" parent="IsNljcrBX8zVi-yIAinM-63">
          <mxGeometry relative="1" as="geometry">
            <mxPoint x="150" y="245" as="targetPoint" />
          </mxGeometry>
        </mxCell>
        <mxCell id="IsNljcrBX8zVi-yIAinM-97" style="edgeStyle=orthogonalEdgeStyle;rounded=0;orthogonalLoop=1;jettySize=auto;html=1;entryX=0;entryY=0.5;entryDx=0;entryDy=0;fillColor=#f8cecc;strokeColor=#b85450;endArrow=open;endFill=0;" edge="1" parent="IsNljcrBX8zVi-yIAinM-63" source="IsNljcrBX8zVi-yIAinM-67" target="IsNljcrBX8zVi-yIAinM-96">
          <mxGeometry relative="1" as="geometry" />
        </mxCell>
        <mxCell id="IsNljcrBX8zVi-yIAinM-67" value="Terminating" style="" vertex="1" parent="IsNljcrBX8zVi-yIAinM-63">
          <mxGeometry x="30" y="209" width="110" height="50" as="geometry" />
        </mxCell>
        <mxCell id="IsNljcrBX8zVi-yIAinM-96" value="Terminated" style="" vertex="1" parent="IsNljcrBX8zVi-yIAinM-63">
          <mxGeometry x="190" y="209" width="110" height="50" as="geometry" />
        </mxCell>
        <mxCell id="IsNljcrBX8zVi-yIAinM-81" style="edgeStyle=orthogonalEdgeStyle;rounded=0;orthogonalLoop=1;jettySize=auto;html=1;entryX=0;entryY=0.5;entryDx=0;entryDy=0;endArrow=open;endFill=0;fillColor=#f8cecc;strokeColor=#b85450;" edge="1" parent="1" source="33" target="IsNljcrBX8zVi-yIAinM-67">
          <mxGeometry relative="1" as="geometry" />
        </mxCell>
        <mxCell id="IsNljcrBX8zVi-yIAinM-82" style="edgeStyle=orthogonalEdgeStyle;rounded=0;orthogonalLoop=1;jettySize=auto;html=1;entryX=0;entryY=0.5;entryDx=0;entryDy=0;fillColor=#f8cecc;strokeColor=#b85450;endArrow=open;endFill=0;" edge="1" parent="1" source="IsNljcrBX8zVi-yIAinM-41" target="IsNljcrBX8zVi-yIAinM-67">
          <mxGeometry relative="1" as="geometry" />
        </mxCell>
        <mxCell id="IsNljcrBX8zVi-yIAinM-84" style="edgeStyle=orthogonalEdgeStyle;rounded=0;orthogonalLoop=1;jettySize=auto;html=1;entryX=0;entryY=0.5;entryDx=0;entryDy=0;endArrow=open;endFill=0;fillColor=#f8cecc;strokeColor=#b85450;" edge="1" parent="1" source="IsNljcrBX8zVi-yIAinM-46" target="IsNljcrBX8zVi-yIAinM-67">
          <mxGeometry relative="1" as="geometry" />
        </mxCell>
        <mxCell id="6" value="" style="edgeStyle=elbowEdgeStyle;elbow=horizontal;verticalAlign=bottom;endArrow=open;endSize=8;strokeColor=#b85450;endFill=1;rounded=0;entryX=0;entryY=0.5;entryDx=0;entryDy=0;fillColor=#f8cecc;" parent="1" target="10" edge="1">
          <mxGeometry x="264.5" y="168" as="geometry">
            <mxPoint x="280" y="122" as="targetPoint" />
            <mxPoint x="120" y="362" as="sourcePoint" />
          </mxGeometry>
        </mxCell>
        <mxCell id="20" value="" style="endArrow=open;strokeColor=#b85450;endFill=1;rounded=0;fillColor=#f8cecc;" parent="1" source="10" target="18" edge="1">
          <mxGeometry relative="1" as="geometry" />
        </mxCell>
        <mxCell id="IsNljcrBX8zVi-yIAinM-85" style="edgeStyle=orthogonalEdgeStyle;rounded=0;orthogonalLoop=1;jettySize=auto;html=1;entryX=0;entryY=0.5;entryDx=0;entryDy=0;fillColor=#f8cecc;strokeColor=#b85450;endArrow=open;endFill=0;" edge="1" parent="1" source="18" target="IsNljcrBX8zVi-yIAinM-41">
          <mxGeometry relative="1" as="geometry" />
        </mxCell>
        <mxCell id="IsNljcrBX8zVi-yIAinM-87" style="edgeStyle=orthogonalEdgeStyle;rounded=0;orthogonalLoop=1;jettySize=auto;html=1;entryX=0;entryY=0.5;entryDx=0;entryDy=0;endArrow=open;endFill=0;fillColor=#f8cecc;strokeColor=#b85450;" edge="1" parent="1" source="18" target="IsNljcrBX8zVi-yIAinM-42">
          <mxGeometry relative="1" as="geometry" />
        </mxCell>
        <mxCell id="IsNljcrBX8zVi-yIAinM-88" style="edgeStyle=orthogonalEdgeStyle;rounded=0;orthogonalLoop=1;jettySize=auto;html=1;entryX=0;entryY=0.5;entryDx=0;entryDy=0;fillColor=#f8cecc;strokeColor=#b85450;endArrow=open;endFill=0;" edge="1" parent="1" source="18" target="IsNljcrBX8zVi-yIAinM-46">
          <mxGeometry relative="1" as="geometry" />
        </mxCell>
        <mxCell id="IsNljcrBX8zVi-yIAinM-90" style="edgeStyle=orthogonalEdgeStyle;rounded=0;orthogonalLoop=1;jettySize=auto;html=1;entryX=0;entryY=0.5;entryDx=0;entryDy=0;fillColor=#f8cecc;strokeColor=#b85450;endArrow=open;endFill=0;" edge="1" parent="1" source="18" target="33">
          <mxGeometry relative="1" as="geometry" />
        </mxCell>
        <mxCell id="IsNljcrBX8zVi-yIAinM-91" style="edgeStyle=orthogonalEdgeStyle;rounded=0;orthogonalLoop=1;jettySize=auto;html=1;entryX=0;entryY=0.5;entryDx=0;entryDy=0;fillColor=#f8cecc;strokeColor=#b85450;endArrow=open;endFill=0;" edge="1" parent="1" source="IsNljcrBX8zVi-yIAinM-42" target="IsNljcrBX8zVi-yIAinM-67">
          <mxGeometry relative="1" as="geometry" />
        </mxCell>
        <mxCell id="IsNljcrBX8zVi-yIAinM-99" style="edgeStyle=orthogonalEdgeStyle;rounded=0;orthogonalLoop=1;jettySize=auto;html=1;entryX=0;entryY=0.5;entryDx=0;entryDy=0;fillColor=#f8cecc;strokeColor=#b85450;endArrow=open;endFill=0;" edge="1" parent="1" source="18" target="IsNljcrBX8zVi-yIAinM-98">
          <mxGeometry relative="1" as="geometry" />
        </mxCell>
        <mxCell id="IsNljcrBX8zVi-yIAinM-100" style="edgeStyle=orthogonalEdgeStyle;rounded=0;orthogonalLoop=1;jettySize=auto;html=1;entryX=0;entryY=0.5;entryDx=0;entryDy=0;fillColor=#f8cecc;strokeColor=#b85450;endArrow=open;endFill=0;" edge="1" parent="1" source="IsNljcrBX8zVi-yIAinM-98" target="IsNljcrBX8zVi-yIAinM-67">
          <mxGeometry relative="1" as="geometry" />
        </mxCell>
      </root>
    </mxGraphModel>
  </diagram>
</mxfile>
